<svg xmlns="http://www.w3.org/2000/svg">
<symbol id="address" viewBox="0 -5 512.00024 512"><path d="m506.097656 254.203125c-3.902344 3.875-9 5.8125-14.097656 5.8125-5.140625 0-10.277344-1.96875-14.1875-5.902344l-15.8125-15.917969v72.820313c0 11.046875-8.953125 20-20 20s-20-8.953125-20-20v-113.082031l-152.105469-153.109375c-7.464843-6.394531-18.457031-6.417969-25.949219-.054688l-153.972656 153.667969c.003906.195312.027344.382812.027344.578125v212c0 22.054687 17.945312 40 40 40h25c11.046875 0 20 8.953125 20 20s-8.953125 20-20 20h-25c-44.113281 0-80-35.886719-80-80v-172.683594l-15.871094 15.839844c-7.816406 7.804687-20.480468 7.792969-28.285156-.027344-7.804688-7.816406-7.789062-20.480469.027344-28.285156l210.289062-209.875c.269532-.265625.546875-.527344.828125-.78125 22.84375-20.335937 57.230469-20.261719 79.984375.167969.28125.253906.558594.515625.824219.785156l208.390625 209.765625c7.785156 7.835937 7.746094 20.5-.089844 28.28125zm-64.097656 136.8125c-11.046875 0-20 8.953125-20 20 0 22.054687-17.945312 40-40 40h-25c-11.046875 0-20 8.953125-20 20s8.953125 20 20 20h25c44.113281 0 80-35.886719 80-80 0-11.046875-8.953125-20-20-20zm-60-73.144531c-.050781 53.554687-31.90625 87.984375-62.710938 121.277344-15.09375 16.3125-30.699218 33.175781-42.945312 52.554687-3.664062 5.796875-10.046875 9.3125-16.90625 9.3125h-6.875c-6.859375 0-13.242188-3.515625-16.90625-9.3125-12.246094-19.378906-27.851562-36.242187-42.945312-52.554687-30.804688-33.292969-62.65625-67.722657-62.710938-121.234376.082031-69.4375 56.605469-125.898437 126-125.898437 69.398438 0 125.917969 56.457031 126 125.855469zm-40 .003906c-.054688-47.324219-38.632812-85.859375-86-85.859375s-85.945312 38.535156-86 85.902344c.035156 37.828125 23 62.644531 52.070312 94.066406 11.40625 12.324219 23.082032 24.945313 33.929688 39.101563 10.847656-14.15625 22.523438-26.777344 33.929688-39.101563 29.070312-31.421875 52.035156-56.242187 52.070312-94.109375zm-86.898438-54.859375c-30.328124 0-55 24.671875-55 55s24.671876 55 55 55c11.046876 0 20-8.953125 20-20s-8.953124-20-20-20c-8.269531 0-15-6.730469-15-15s6.730469-15 15-15c8.269532 0 15 6.730469 15 15 0 11.046875 8.953126 20 20 20 11.046876 0 20-8.953125 20-20 0-30.328125-24.671874-55-55-55zm0 0"/></symbol>
<symbol id="food" viewBox="0 0 480 480"><path d="M339.904 161.776l-5.136-16.904c-6.524-19.202-27.379-29.479-46.581-22.955a36.72 36.72 0 0 0-22.955 22.955l-5.136 16.904a94.952 94.952 0 0 0-2.648 44 41.385 41.385 0 0 0 21.312 28.84L273.008 363.2a25.335 25.335 0 0 0 6.4 19.696c10.413 11.39 28.089 12.182 39.479 1.769a27.848 27.848 0 0 0 1.769-1.769 24.993 24.993 0 0 0 6.4-19.16L321.272 234.6a41.376 41.376 0 0 0 21.28-28.824 94.952 94.952 0 0 0-2.648-44zm-13.112 41.216a25.366 25.366 0 0 1-16.6 19.112 7.999 7.999 0 0 0-5.176 7.848L311.096 365a9.255 9.255 0 0 1-2.4 7.248c-4.817 4.769-12.575 4.769-17.392 0a9.602 9.602 0 0 1-2.352-7.776l6.032-134.52a7.999 7.999 0 0 0-5.176-7.848 25.366 25.366 0 0 1-16.6-19.112 78.89 78.89 0 0 1 2.2-36.528l5.136-16.912c3.974-10.745 15.906-16.234 26.652-12.26a20.744 20.744 0 0 1 12.26 12.26l5.136 16.912a78.999 78.999 0 0 1 2.2 36.528zM216 120a8 8 0 0 0-8 8v68.688l-21.656 21.656A8 8 0 0 0 184 224.4l7 140a10.898 10.898 0 0 1-3.024 8.152c-4.379 4.418-11.511 4.45-15.93.07l-.07-.07a10.894 10.894 0 0 1-3.024-8.152l7.048-140a8.002 8.002 0 0 0-2.336-6.056L152 196.688V128a8 8 0 0 0-16 0v72a8 8 0 0 0 2.344 5.656l21.488 21.496-6.824 136.472c-.726 14.907 10.77 27.581 25.677 28.307 14.907.726 27.581-10.77 28.307-25.677.043-.876.043-1.753 0-2.629l-6.824-136.472 21.488-21.496a8 8 0 0 0 2.344-5.656v-72a8 8 0 0 0-8-8.001z"/><path d="M168 120a8 8 0 0 0-8 8v64a8 8 0 0 0 16 0v-64a8 8 0 0 0-8-8zM192 120a8 8 0 0 0-8 8v64a8 8 0 0 0 16 0v-64a8 8 0 0 0-8-8z"/><path d="M240 0C107.452 0 0 107.452 0 240s107.452 240 240 240 240-107.452 240-240C479.85 107.514 372.486.15 240 0zm0 464C116.288 464 16 363.712 16 240S116.288 16 240 16s224 100.288 224 224c-.141 123.653-100.347 223.859-224 224z"/><path d="M265.969 390.172a8 8 0 0 0-9.049-7.149l.032-.008a146.959 146.959 0 0 1-33.904 0 8.002 8.002 0 0 0-8.88 7.016 8.002 8.002 0 0 0 7.016 8.88 162.046 162.046 0 0 0 37.6 0 8 8 0 0 0 7.185-8.739zM362.4 136.912a7.999 7.999 0 0 0-11.27-.988l-.034.028a8 8 0 0 0-.96 11.272c48.235 57.26 44.545 141.929-8.488 194.776a8.002 8.002 0 0 0 11.296 11.336c58.937-58.713 63.047-152.795 9.456-216.424zM186.392 105.744l-.015-.001-.025.001h.04zM277.736 84.472a161.416 161.416 0 0 0-94.168 5.784 8 8 0 0 0 2.809 15.487 8.011 8.011 0 0 0 2.799-.519 145.334 145.334 0 0 1 84.8-5.2 8 8 0 0 0 9.656-5.896 8 8 0 0 0-5.896-9.656zM137.992 341.6A143.073 143.073 0 0 1 96 240a142.937 142.937 0 0 1 27.528-84.704 8 8 0 0 0-1.588-11.202 8 8 0 0 0-11.34 1.778c-46.253 63.588-39.447 151.359 16.056 207.056a8.013 8.013 0 0 0 11.336-11.328z"/></symbol>
<symbol id="whatsapp" viewBox="0 0 24 24"><path d="M17.507 14.307l-.009.075c-2.199-1.096-2.429-1.242-2.713-.816-.197.295-.771.964-.944 1.162-.175.195-.349.21-.646.075-.3-.15-1.263-.465-2.403-1.485-.888-.795-1.484-1.77-1.66-2.07-.293-.506.32-.578.878-1.634.1-.21.049-.375-.025-.524-.075-.15-.672-1.62-.922-2.206-.24-.584-.487-.51-.672-.51-.576-.05-.997-.042-1.368.344-1.614 1.774-1.207 3.604.174 5.55 2.714 3.552 4.16 4.206 6.804 5.114.714.227 1.365.195 1.88.121.574-.091 1.767-.721 2.016-1.426.255-.705.255-1.29.18-1.425-.074-.135-.27-.21-.57-.345z"/><path d="M20.52 3.449C12.831-3.984.106 1.407.101 11.893c0 2.096.549 4.14 1.595 5.945L0 24l6.335-1.652c7.905 4.27 17.661-1.4 17.665-10.449 0-3.176-1.24-6.165-3.495-8.411zm1.482 8.417c-.006 7.633-8.385 12.4-15.012 8.504l-.36-.214-3.75.975 1.005-3.645-.239-.375c-4.124-6.565.614-15.145 8.426-15.145a9.865 9.865 0 0 1 7.021 2.91 9.788 9.788 0 0 1 2.909 6.99z"/></symbol>
</svg>